<?xml version="1.0" encoding="utf-8"?>
<svg viewBox="0 0 512 512" xmlns="http://www.w3.org/2000/svg">
  <path d="M1508 4291 c-323 -163 -590 -299 -593 -303 -8 -8 1946 -988 1969 -988 23 0 1195 604 1193 615 -2 13 -1945 975 -1966 974 -9 -1 -280 -135 -603 -298z"  transform="matrix(0.1, 0, 0, -0.1, 0, 512)" fill="currentColor"/>
  <path d="M870 3506 l0 -435 1007 -500 c553 -276 1012 -501 1018 -501 7 0 286 139 621 309 l609 310 3 441 c1 243 -1 440 -6 438 -31 -13 -1199 -613 -1206 -619 -6 -5 -16 -9 -23 -9 -7 0 -463 225 -1013 500 -550 275 -1002 500 -1005 500 -3 0 -5 -196 -5 -434z"  transform="matrix(0.1, 0, 0, -0.1, 0, 512)" fill="currentColor"/>
  <path d="M1770 2301 l0 -260 487 -245 c268 -135 493 -246 500 -246 7 0 117 52 243 115 l230 115 0 195 c0 107 -3 195 -6 195 -3 0 -76 -36 -163 -80 -87 -44 -161 -80 -165 -80 -4 0 -257 124 -563 275 -306 151 -558 275 -559 275 -2 0 -4 -117 -4 -259z"  transform="matrix(0.1, 0, 0, -0.1, 0, 512)" fill="currentColor"/>
  <path d="M3318 2219 l-38 -19 0 -225 0 -225 -252 -127 c-139 -71 -262 -128 -273 -128 -11 0 -238 110 -505 245 -266 135 -495 249 -507 253 -21 8 -23 15 -25 121 l-3 113 -332 -161 c-183 -88 -333 -162 -333 -165 1 -8 1416 -705 1438 -709 24 -4 1476 718 1466 728 -8 7 -594 321 -598 320 0 -1 -18 -10 -38 -21z"  transform="matrix(0.1, 0, 0, -0.1, 0, 512)" fill="currentColor"/>
  <path d="M3246 1499 c-407 -203 -744 -369 -748 -369 -11 0 -189 86 -892 434 -329 163 -600 296 -602 296 -3 0 -3 -124 -2 -276 l3 -275 739 -365 c406 -200 744 -364 751 -364 7 0 348 164 757 364 l743 364 3 281 c1 155 -1 281 -5 280 -5 0 -341 -167 -747 -370z"  transform="matrix(0.1, 0, 0, -0.1, 0, 512)" fill="currentColor"/>
</svg>